{
  "asset": {
    "version": "2.0",
    "generator": "placeholder"
  },
  "scene": 0,
  "scenes": [{ "nodes": [0] }],
  "nodes": [{ "mesh": 0 }],
  "meshes": [
    {
      "primitives": [
        {
          "attributes": { "POSITION": 0 },
          "indices": 1
        }
      ]
    }
  ],
  "accessors": [
    {
      "bufferView": 0,
      "componentType": 5126,
      "count": 4,
      "type": "VEC3",
      "max": [0.5, 0.5, 0.0],
      "min": [-0.5, -0.5, 0.0]
    },
    {
      "bufferView": 1,
      "componentType": 5123,
      "count": 6,
      "type": "SCALAR"
    }
  ],
  "bufferViews": [
    { "buffer": 0, "byteOffset": 0, "byteLength": 48, "target": 34962 },
    { "buffer": 0, "byteOffset": 48, "byteLength": 12, "target": 34963 }
  ],
  "buffers": [
    {
      "uri": "data:application/octet-stream;base64, wAAAD8AAAAAAAAAPwAAAL8AAAAAAAAAP wAAAL8AAAAAAAABAAIAAAIAAWA=",
      "byteLength": 60
    }
  ]
}
